<mxfile host="app.diagrams.net" agent="Mozilla/5.0 (Windows NT 10.0; Win64; x64) AppleWebKit/537.36 (KHTML, like Gecko) Chrome/127.0.0.0 Safari/537.36" version="24.7.8">
  <diagram id="C5RBs43oDa-KdzZeNtuy" name="Page-1">
    <mxGraphModel dx="4400" dy="2130" grid="1" gridSize="10" guides="1" tooltips="1" connect="1" arrows="1" fold="1" page="1" pageScale="1" pageWidth="827" pageHeight="1169" math="0" shadow="0">
      <root>
        <mxCell id="WIyWlLk6GJQsqaUBKTNV-0" />
        <mxCell id="WIyWlLk6GJQsqaUBKTNV-1" parent="WIyWlLk6GJQsqaUBKTNV-0" />
        <mxCell id="WIyWlLk6GJQsqaUBKTNV-2" value="" style="rounded=0;html=1;jettySize=auto;orthogonalLoop=1;fontSize=11;endArrow=block;endFill=0;endSize=8;strokeWidth=1;shadow=0;labelBackgroundColor=none;edgeStyle=orthogonalEdgeStyle;" parent="WIyWlLk6GJQsqaUBKTNV-1" source="WIyWlLk6GJQsqaUBKTNV-3" target="WIyWlLk6GJQsqaUBKTNV-6" edge="1">
          <mxGeometry relative="1" as="geometry" />
        </mxCell>
        <mxCell id="WIyWlLk6GJQsqaUBKTNV-3" value="Comienza el proceso de programación concurrente en IA" style="rounded=1;whiteSpace=wrap;html=1;fontSize=12;glass=0;strokeWidth=1;shadow=0;" parent="WIyWlLk6GJQsqaUBKTNV-1" vertex="1">
          <mxGeometry x="90" y="80" width="210" height="40" as="geometry" />
        </mxCell>
        <mxCell id="WIyWlLk6GJQsqaUBKTNV-4" value="Yes" style="rounded=0;html=1;jettySize=auto;orthogonalLoop=1;fontSize=11;endArrow=block;endFill=0;endSize=8;strokeWidth=1;shadow=0;labelBackgroundColor=none;edgeStyle=orthogonalEdgeStyle;" parent="WIyWlLk6GJQsqaUBKTNV-1" source="WIyWlLk6GJQsqaUBKTNV-6" edge="1">
          <mxGeometry y="20" relative="1" as="geometry">
            <mxPoint as="offset" />
            <mxPoint x="195" y="300" as="targetPoint" />
          </mxGeometry>
        </mxCell>
        <mxCell id="WIyWlLk6GJQsqaUBKTNV-5" value="No" style="edgeStyle=orthogonalEdgeStyle;rounded=0;html=1;jettySize=auto;orthogonalLoop=1;fontSize=11;endArrow=block;endFill=0;endSize=8;strokeWidth=1;shadow=0;labelBackgroundColor=none;" parent="WIyWlLk6GJQsqaUBKTNV-1" source="WIyWlLk6GJQsqaUBKTNV-6" target="WIyWlLk6GJQsqaUBKTNV-7" edge="1">
          <mxGeometry y="10" relative="1" as="geometry">
            <mxPoint as="offset" />
          </mxGeometry>
        </mxCell>
        <mxCell id="WIyWlLk6GJQsqaUBKTNV-6" value="&lt;b&gt;Entrenamiento de modelos&lt;/b&gt;" style="rhombus;whiteSpace=wrap;html=1;shadow=0;fontFamily=Helvetica;fontSize=12;align=center;strokeWidth=1;spacing=6;spacingTop=-4;" parent="WIyWlLk6GJQsqaUBKTNV-1" vertex="1">
          <mxGeometry x="120" y="170" width="150" height="80" as="geometry" />
        </mxCell>
        <mxCell id="WIyWlLk6GJQsqaUBKTNV-7" value="Continuar siguiente proceso" style="rounded=1;whiteSpace=wrap;html=1;fontSize=12;glass=0;strokeWidth=1;shadow=0;" parent="WIyWlLk6GJQsqaUBKTNV-1" vertex="1">
          <mxGeometry x="350" y="190" width="170" height="40" as="geometry" />
        </mxCell>
        <mxCell id="CBO6Vm1dNy554DvEMSkb-5" value="" style="edgeStyle=orthogonalEdgeStyle;rounded=0;html=1;jettySize=auto;orthogonalLoop=1;fontSize=11;endArrow=block;endFill=0;endSize=8;strokeWidth=1;shadow=0;labelBackgroundColor=none;entryX=0.5;entryY=0;entryDx=0;entryDy=0;exitX=0.5;exitY=1;exitDx=0;exitDy=0;" edge="1" parent="WIyWlLk6GJQsqaUBKTNV-1" source="WIyWlLk6GJQsqaUBKTNV-7">
          <mxGeometry y="10" relative="1" as="geometry">
            <mxPoint as="offset" />
            <mxPoint x="310" y="270" as="sourcePoint" />
            <mxPoint x="195" y="300" as="targetPoint" />
            <Array as="points">
              <mxPoint x="410" y="230" />
              <mxPoint x="410" y="270" />
              <mxPoint x="195" y="270" />
            </Array>
          </mxGeometry>
        </mxCell>
        <mxCell id="CBO6Vm1dNy554DvEMSkb-6" value="Yes" style="rounded=0;html=1;jettySize=auto;orthogonalLoop=1;fontSize=11;endArrow=block;endFill=0;endSize=8;strokeWidth=1;shadow=0;labelBackgroundColor=none;edgeStyle=orthogonalEdgeStyle;" edge="1" parent="WIyWlLk6GJQsqaUBKTNV-1">
          <mxGeometry y="20" relative="1" as="geometry">
            <mxPoint as="offset" />
            <mxPoint x="195" y="560" as="targetPoint" />
            <mxPoint x="195" y="490" as="sourcePoint" />
          </mxGeometry>
        </mxCell>
        <mxCell id="CBO6Vm1dNy554DvEMSkb-7" value="No" style="edgeStyle=orthogonalEdgeStyle;rounded=0;html=1;jettySize=auto;orthogonalLoop=1;fontSize=11;endArrow=block;endFill=0;endSize=8;strokeWidth=1;shadow=0;labelBackgroundColor=none;" edge="1" parent="WIyWlLk6GJQsqaUBKTNV-1" source="CBO6Vm1dNy554DvEMSkb-8" target="CBO6Vm1dNy554DvEMSkb-9">
          <mxGeometry y="10" relative="1" as="geometry">
            <mxPoint as="offset" />
          </mxGeometry>
        </mxCell>
        <mxCell id="CBO6Vm1dNy554DvEMSkb-8" value="&lt;b&gt;Procesamiento de datos&lt;/b&gt;" style="rhombus;whiteSpace=wrap;html=1;shadow=0;fontFamily=Helvetica;fontSize=12;align=center;strokeWidth=1;spacing=6;spacingTop=-4;" vertex="1" parent="WIyWlLk6GJQsqaUBKTNV-1">
          <mxGeometry x="120" y="410" width="150" height="80" as="geometry" />
        </mxCell>
        <mxCell id="CBO6Vm1dNy554DvEMSkb-9" value="Continuar siguiente proceso" style="rounded=1;whiteSpace=wrap;html=1;fontSize=12;glass=0;strokeWidth=1;shadow=0;" vertex="1" parent="WIyWlLk6GJQsqaUBKTNV-1">
          <mxGeometry x="350" y="430" width="170" height="40" as="geometry" />
        </mxCell>
        <mxCell id="CBO6Vm1dNy554DvEMSkb-10" value="" style="edgeStyle=orthogonalEdgeStyle;rounded=0;html=1;jettySize=auto;orthogonalLoop=1;fontSize=11;endArrow=block;endFill=0;endSize=8;strokeWidth=1;shadow=0;labelBackgroundColor=none;exitX=0.5;exitY=1;exitDx=0;exitDy=0;" edge="1" parent="WIyWlLk6GJQsqaUBKTNV-1" source="CBO6Vm1dNy554DvEMSkb-9">
          <mxGeometry y="10" relative="1" as="geometry">
            <mxPoint as="offset" />
            <mxPoint x="310" y="510" as="sourcePoint" />
            <mxPoint x="195" y="560" as="targetPoint" />
            <Array as="points">
              <mxPoint x="410" y="470" />
              <mxPoint x="410" y="510" />
              <mxPoint x="195" y="510" />
            </Array>
          </mxGeometry>
        </mxCell>
        <mxCell id="CBO6Vm1dNy554DvEMSkb-23" value="Distribuir operaciones en múltiples núcleos (CPU/GPU)." style="rounded=1;whiteSpace=wrap;html=1;" vertex="1" parent="WIyWlLk6GJQsqaUBKTNV-1">
          <mxGeometry x="77.5" y="300" width="235" height="60" as="geometry" />
        </mxCell>
        <mxCell id="CBO6Vm1dNy554DvEMSkb-29" value="Yes" style="rounded=0;html=1;jettySize=auto;orthogonalLoop=1;fontSize=11;endArrow=block;endFill=0;endSize=8;strokeWidth=1;shadow=0;labelBackgroundColor=none;edgeStyle=orthogonalEdgeStyle;" edge="1" parent="WIyWlLk6GJQsqaUBKTNV-1">
          <mxGeometry y="20" relative="1" as="geometry">
            <mxPoint as="offset" />
            <mxPoint x="195" y="410" as="targetPoint" />
            <mxPoint x="195" y="360" as="sourcePoint" />
          </mxGeometry>
        </mxCell>
        <mxCell id="CBO6Vm1dNy554DvEMSkb-36" value="Procesa los fragmentos en paralelo" style="rounded=1;whiteSpace=wrap;html=1;" vertex="1" parent="WIyWlLk6GJQsqaUBKTNV-1">
          <mxGeometry x="80" y="560" width="232.5" height="60" as="geometry" />
        </mxCell>
        <mxCell id="CBO6Vm1dNy554DvEMSkb-37" value="Yes" style="rounded=0;html=1;jettySize=auto;orthogonalLoop=1;fontSize=11;endArrow=block;endFill=0;endSize=8;strokeWidth=1;shadow=0;labelBackgroundColor=none;edgeStyle=orthogonalEdgeStyle;" edge="1" parent="WIyWlLk6GJQsqaUBKTNV-1" source="CBO6Vm1dNy554DvEMSkb-39">
          <mxGeometry y="20" relative="1" as="geometry">
            <mxPoint as="offset" />
            <mxPoint x="197.5" y="820" as="targetPoint" />
          </mxGeometry>
        </mxCell>
        <mxCell id="CBO6Vm1dNy554DvEMSkb-38" value="No" style="edgeStyle=orthogonalEdgeStyle;rounded=0;html=1;jettySize=auto;orthogonalLoop=1;fontSize=11;endArrow=block;endFill=0;endSize=8;strokeWidth=1;shadow=0;labelBackgroundColor=none;" edge="1" parent="WIyWlLk6GJQsqaUBKTNV-1" source="CBO6Vm1dNy554DvEMSkb-39" target="CBO6Vm1dNy554DvEMSkb-40">
          <mxGeometry y="10" relative="1" as="geometry">
            <mxPoint as="offset" />
          </mxGeometry>
        </mxCell>
        <mxCell id="CBO6Vm1dNy554DvEMSkb-39" value="&lt;b&gt;Algoritmos Genéticos&lt;/b&gt;" style="rhombus;whiteSpace=wrap;html=1;shadow=0;fontFamily=Helvetica;fontSize=12;align=center;strokeWidth=1;spacing=6;spacingTop=-4;" vertex="1" parent="WIyWlLk6GJQsqaUBKTNV-1">
          <mxGeometry x="122.5" y="690" width="150" height="80" as="geometry" />
        </mxCell>
        <mxCell id="CBO6Vm1dNy554DvEMSkb-40" value="Continuar siguiente proceso" style="rounded=1;whiteSpace=wrap;html=1;fontSize=12;glass=0;strokeWidth=1;shadow=0;" vertex="1" parent="WIyWlLk6GJQsqaUBKTNV-1">
          <mxGeometry x="352.5" y="710" width="170" height="40" as="geometry" />
        </mxCell>
        <mxCell id="CBO6Vm1dNy554DvEMSkb-41" value="" style="edgeStyle=orthogonalEdgeStyle;rounded=0;html=1;jettySize=auto;orthogonalLoop=1;fontSize=11;endArrow=block;endFill=0;endSize=8;strokeWidth=1;shadow=0;labelBackgroundColor=none;entryX=0.5;entryY=0;entryDx=0;entryDy=0;exitX=0.5;exitY=1;exitDx=0;exitDy=0;" edge="1" parent="WIyWlLk6GJQsqaUBKTNV-1" source="CBO6Vm1dNy554DvEMSkb-40">
          <mxGeometry y="10" relative="1" as="geometry">
            <mxPoint as="offset" />
            <mxPoint x="312.5" y="790" as="sourcePoint" />
            <mxPoint x="197.5" y="820" as="targetPoint" />
            <Array as="points">
              <mxPoint x="412.5" y="750" />
              <mxPoint x="412.5" y="790" />
              <mxPoint x="197.5" y="790" />
            </Array>
          </mxGeometry>
        </mxCell>
        <mxCell id="CBO6Vm1dNy554DvEMSkb-42" value="Yes" style="rounded=0;html=1;jettySize=auto;orthogonalLoop=1;fontSize=11;endArrow=block;endFill=0;endSize=8;strokeWidth=1;shadow=0;labelBackgroundColor=none;edgeStyle=orthogonalEdgeStyle;" edge="1" parent="WIyWlLk6GJQsqaUBKTNV-1" source="CBO6Vm1dNy554DvEMSkb-44">
          <mxGeometry y="20" relative="1" as="geometry">
            <mxPoint as="offset" />
            <mxPoint x="197.5" y="1080" as="targetPoint" />
          </mxGeometry>
        </mxCell>
        <mxCell id="CBO6Vm1dNy554DvEMSkb-43" value="No" style="edgeStyle=orthogonalEdgeStyle;rounded=0;html=1;jettySize=auto;orthogonalLoop=1;fontSize=11;endArrow=block;endFill=0;endSize=8;strokeWidth=1;shadow=0;labelBackgroundColor=none;" edge="1" parent="WIyWlLk6GJQsqaUBKTNV-1" source="CBO6Vm1dNy554DvEMSkb-44" target="CBO6Vm1dNy554DvEMSkb-45">
          <mxGeometry y="10" relative="1" as="geometry">
            <mxPoint as="offset" />
          </mxGeometry>
        </mxCell>
        <mxCell id="CBO6Vm1dNy554DvEMSkb-44" value="&lt;b&gt;Simulaciones Multiagente&lt;/b&gt;" style="rhombus;whiteSpace=wrap;html=1;shadow=0;fontFamily=Helvetica;fontSize=12;align=center;strokeWidth=1;spacing=6;spacingTop=-4;" vertex="1" parent="WIyWlLk6GJQsqaUBKTNV-1">
          <mxGeometry x="111.25" y="930" width="172.5" height="80" as="geometry" />
        </mxCell>
        <mxCell id="CBO6Vm1dNy554DvEMSkb-45" value="Continuar siguiente proceso" style="rounded=1;whiteSpace=wrap;html=1;fontSize=12;glass=0;strokeWidth=1;shadow=0;" vertex="1" parent="WIyWlLk6GJQsqaUBKTNV-1">
          <mxGeometry x="352.5" y="950" width="170" height="40" as="geometry" />
        </mxCell>
        <mxCell id="CBO6Vm1dNy554DvEMSkb-46" value="" style="edgeStyle=orthogonalEdgeStyle;rounded=0;html=1;jettySize=auto;orthogonalLoop=1;fontSize=11;endArrow=block;endFill=0;endSize=8;strokeWidth=1;shadow=0;labelBackgroundColor=none;exitX=0.5;exitY=1;exitDx=0;exitDy=0;" edge="1" parent="WIyWlLk6GJQsqaUBKTNV-1" source="CBO6Vm1dNy554DvEMSkb-45">
          <mxGeometry y="10" relative="1" as="geometry">
            <mxPoint as="offset" />
            <mxPoint x="312.5" y="1030" as="sourcePoint" />
            <mxPoint x="197.5" y="1080" as="targetPoint" />
            <Array as="points">
              <mxPoint x="412.5" y="990" />
              <mxPoint x="412.5" y="1030" />
              <mxPoint x="197.5" y="1030" />
            </Array>
          </mxGeometry>
        </mxCell>
        <mxCell id="CBO6Vm1dNy554DvEMSkb-47" value="Evalúa individuos concurrentemente" style="rounded=1;whiteSpace=wrap;html=1;" vertex="1" parent="WIyWlLk6GJQsqaUBKTNV-1">
          <mxGeometry x="80" y="820" width="230" height="60" as="geometry" />
        </mxCell>
        <mxCell id="CBO6Vm1dNy554DvEMSkb-48" value="" style="rounded=0;html=1;jettySize=auto;orthogonalLoop=1;fontSize=11;endArrow=block;endFill=0;endSize=8;strokeWidth=1;shadow=0;labelBackgroundColor=none;edgeStyle=orthogonalEdgeStyle;" edge="1" parent="WIyWlLk6GJQsqaUBKTNV-1">
          <mxGeometry x="-0.0118" y="20" relative="1" as="geometry">
            <mxPoint as="offset" />
            <mxPoint x="197.5" y="930" as="targetPoint" />
            <mxPoint x="197.5" y="880" as="sourcePoint" />
          </mxGeometry>
        </mxCell>
        <mxCell id="CBO6Vm1dNy554DvEMSkb-49" value="Operar agentes independientemente" style="rounded=1;whiteSpace=wrap;html=1;" vertex="1" parent="WIyWlLk6GJQsqaUBKTNV-1">
          <mxGeometry x="80" y="1080" width="235" height="60" as="geometry" />
        </mxCell>
        <mxCell id="CBO6Vm1dNy554DvEMSkb-52" value="" style="rounded=0;html=1;jettySize=auto;orthogonalLoop=1;fontSize=11;endArrow=block;endFill=0;endSize=8;strokeWidth=1;shadow=0;labelBackgroundColor=none;edgeStyle=orthogonalEdgeStyle;" edge="1" parent="WIyWlLk6GJQsqaUBKTNV-1">
          <mxGeometry x="0.0084" y="20" relative="1" as="geometry">
            <mxPoint as="offset" />
            <mxPoint x="197" y="690" as="targetPoint" />
            <mxPoint x="197" y="620" as="sourcePoint" />
          </mxGeometry>
        </mxCell>
        <mxCell id="CBO6Vm1dNy554DvEMSkb-87" value="Yes" style="rounded=0;html=1;jettySize=auto;orthogonalLoop=1;fontSize=11;endArrow=block;endFill=0;endSize=8;strokeWidth=1;shadow=0;labelBackgroundColor=none;edgeStyle=orthogonalEdgeStyle;entryX=0.5;entryY=0;entryDx=0;entryDy=0;" edge="1" parent="WIyWlLk6GJQsqaUBKTNV-1" source="CBO6Vm1dNy554DvEMSkb-89" target="CBO6Vm1dNy554DvEMSkb-97">
          <mxGeometry y="20" relative="1" as="geometry">
            <mxPoint as="offset" />
            <mxPoint x="197.5" y="1380" as="targetPoint" />
          </mxGeometry>
        </mxCell>
        <mxCell id="CBO6Vm1dNy554DvEMSkb-88" value="No" style="edgeStyle=orthogonalEdgeStyle;rounded=0;html=1;jettySize=auto;orthogonalLoop=1;fontSize=11;endArrow=block;endFill=0;endSize=8;strokeWidth=1;shadow=0;labelBackgroundColor=none;" edge="1" parent="WIyWlLk6GJQsqaUBKTNV-1" source="CBO6Vm1dNy554DvEMSkb-89" target="CBO6Vm1dNy554DvEMSkb-90">
          <mxGeometry y="10" relative="1" as="geometry">
            <mxPoint as="offset" />
          </mxGeometry>
        </mxCell>
        <mxCell id="CBO6Vm1dNy554DvEMSkb-89" value="&lt;b&gt;Optimizacion Bayesiana&lt;/b&gt;" style="rhombus;whiteSpace=wrap;html=1;shadow=0;fontFamily=Helvetica;fontSize=12;align=center;strokeWidth=1;spacing=6;spacingTop=-4;" vertex="1" parent="WIyWlLk6GJQsqaUBKTNV-1">
          <mxGeometry x="122.5" y="1250" width="150" height="80" as="geometry" />
        </mxCell>
        <mxCell id="CBO6Vm1dNy554DvEMSkb-90" value="Continuar siguiente proceso" style="rounded=1;whiteSpace=wrap;html=1;fontSize=12;glass=0;strokeWidth=1;shadow=0;" vertex="1" parent="WIyWlLk6GJQsqaUBKTNV-1">
          <mxGeometry x="352.5" y="1270" width="170" height="40" as="geometry" />
        </mxCell>
        <mxCell id="CBO6Vm1dNy554DvEMSkb-91" value="" style="edgeStyle=orthogonalEdgeStyle;rounded=0;html=1;jettySize=auto;orthogonalLoop=1;fontSize=11;endArrow=block;endFill=0;endSize=8;strokeWidth=1;shadow=0;labelBackgroundColor=none;exitX=0.5;exitY=1;exitDx=0;exitDy=0;" edge="1" parent="WIyWlLk6GJQsqaUBKTNV-1" source="CBO6Vm1dNy554DvEMSkb-90">
          <mxGeometry y="10" relative="1" as="geometry">
            <mxPoint as="offset" />
            <mxPoint x="312.5" y="1350" as="sourcePoint" />
            <mxPoint x="198" y="1410" as="targetPoint" />
            <Array as="points">
              <mxPoint x="413" y="1310" />
              <mxPoint x="413" y="1350" />
              <mxPoint x="197" y="1350" />
            </Array>
          </mxGeometry>
        </mxCell>
        <mxCell id="CBO6Vm1dNy554DvEMSkb-92" value="Yes" style="rounded=0;html=1;jettySize=auto;orthogonalLoop=1;fontSize=11;endArrow=block;endFill=0;endSize=8;strokeWidth=1;shadow=0;labelBackgroundColor=none;edgeStyle=orthogonalEdgeStyle;" edge="1" parent="WIyWlLk6GJQsqaUBKTNV-1">
          <mxGeometry y="20" relative="1" as="geometry">
            <mxPoint as="offset" />
            <mxPoint x="965" y="260" as="targetPoint" />
            <mxPoint x="965" y="190" as="sourcePoint" />
          </mxGeometry>
        </mxCell>
        <mxCell id="CBO6Vm1dNy554DvEMSkb-93" value="No" style="edgeStyle=orthogonalEdgeStyle;rounded=0;html=1;jettySize=auto;orthogonalLoop=1;fontSize=11;endArrow=block;endFill=0;endSize=8;strokeWidth=1;shadow=0;labelBackgroundColor=none;" edge="1" parent="WIyWlLk6GJQsqaUBKTNV-1" source="CBO6Vm1dNy554DvEMSkb-94" target="CBO6Vm1dNy554DvEMSkb-95">
          <mxGeometry y="10" relative="1" as="geometry">
            <mxPoint as="offset" />
          </mxGeometry>
        </mxCell>
        <mxCell id="CBO6Vm1dNy554DvEMSkb-94" value="&lt;b&gt;Sistemas de IA en Tiempo Real&lt;/b&gt;" style="rhombus;whiteSpace=wrap;html=1;shadow=0;fontFamily=Helvetica;fontSize=12;align=center;strokeWidth=1;spacing=6;spacingTop=-4;" vertex="1" parent="WIyWlLk6GJQsqaUBKTNV-1">
          <mxGeometry x="855.25" y="110" width="219.5" height="90" as="geometry" />
        </mxCell>
        <mxCell id="CBO6Vm1dNy554DvEMSkb-95" value="Continuar siguiente proceso" style="rounded=1;whiteSpace=wrap;html=1;fontSize=12;glass=0;strokeWidth=1;shadow=0;" vertex="1" parent="WIyWlLk6GJQsqaUBKTNV-1">
          <mxGeometry x="1130.5" y="135" width="170" height="40" as="geometry" />
        </mxCell>
        <mxCell id="CBO6Vm1dNy554DvEMSkb-96" value="" style="edgeStyle=orthogonalEdgeStyle;rounded=0;html=1;jettySize=auto;orthogonalLoop=1;fontSize=11;endArrow=block;endFill=0;endSize=8;strokeWidth=1;shadow=0;labelBackgroundColor=none;exitX=0.5;exitY=1;exitDx=0;exitDy=0;" edge="1" parent="WIyWlLk6GJQsqaUBKTNV-1" source="CBO6Vm1dNy554DvEMSkb-95">
          <mxGeometry y="10" relative="1" as="geometry">
            <mxPoint as="offset" />
            <mxPoint x="1080" y="210" as="sourcePoint" />
            <mxPoint x="965" y="260" as="targetPoint" />
            <Array as="points">
              <mxPoint x="1215.5" y="210" />
              <mxPoint x="965.5" y="210" />
            </Array>
          </mxGeometry>
        </mxCell>
        <mxCell id="CBO6Vm1dNy554DvEMSkb-97" value="Evalúa configuraciones en paralelo" style="rounded=1;whiteSpace=wrap;html=1;" vertex="1" parent="WIyWlLk6GJQsqaUBKTNV-1">
          <mxGeometry x="80" y="1410" width="235" height="60" as="geometry" />
        </mxCell>
        <mxCell id="CBO6Vm1dNy554DvEMSkb-98" value="" style="rounded=0;html=1;jettySize=auto;orthogonalLoop=1;fontSize=11;endArrow=block;endFill=0;endSize=8;strokeWidth=1;shadow=0;labelBackgroundColor=none;edgeStyle=orthogonalEdgeStyle;entryX=0;entryY=0.5;entryDx=0;entryDy=0;exitX=1;exitY=0.5;exitDx=0;exitDy=0;" edge="1" parent="WIyWlLk6GJQsqaUBKTNV-1" source="CBO6Vm1dNy554DvEMSkb-97" target="CBO6Vm1dNy554DvEMSkb-94">
          <mxGeometry y="20" relative="1" as="geometry">
            <mxPoint as="offset" />
            <mxPoint x="804.5" y="350" as="targetPoint" />
            <mxPoint x="500" y="290" as="sourcePoint" />
          </mxGeometry>
        </mxCell>
        <mxCell id="CBO6Vm1dNy554DvEMSkb-99" value="Ejecutar tareas de inferencia simultáneamente." style="rounded=1;whiteSpace=wrap;html=1;" vertex="1" parent="WIyWlLk6GJQsqaUBKTNV-1">
          <mxGeometry x="850" y="260" width="232.5" height="60" as="geometry" />
        </mxCell>
        <mxCell id="CBO6Vm1dNy554DvEMSkb-100" value="Yes" style="rounded=0;html=1;jettySize=auto;orthogonalLoop=1;fontSize=11;endArrow=block;endFill=0;endSize=8;strokeWidth=1;shadow=0;labelBackgroundColor=none;edgeStyle=orthogonalEdgeStyle;" edge="1" parent="WIyWlLk6GJQsqaUBKTNV-1" source="CBO6Vm1dNy554DvEMSkb-102">
          <mxGeometry y="20" relative="1" as="geometry">
            <mxPoint as="offset" />
            <mxPoint x="967.5" y="520" as="targetPoint" />
          </mxGeometry>
        </mxCell>
        <mxCell id="CBO6Vm1dNy554DvEMSkb-101" value="No" style="edgeStyle=orthogonalEdgeStyle;rounded=0;html=1;jettySize=auto;orthogonalLoop=1;fontSize=11;endArrow=block;endFill=0;endSize=8;strokeWidth=1;shadow=0;labelBackgroundColor=none;" edge="1" parent="WIyWlLk6GJQsqaUBKTNV-1" source="CBO6Vm1dNy554DvEMSkb-102" target="CBO6Vm1dNy554DvEMSkb-103">
          <mxGeometry y="10" relative="1" as="geometry">
            <mxPoint as="offset" />
          </mxGeometry>
        </mxCell>
        <mxCell id="CBO6Vm1dNy554DvEMSkb-102" value="&lt;strong&gt;Inferencia Distribuida&lt;/strong&gt;:" style="rhombus;whiteSpace=wrap;html=1;shadow=0;fontFamily=Helvetica;fontSize=12;align=center;strokeWidth=1;spacing=6;spacingTop=-4;" vertex="1" parent="WIyWlLk6GJQsqaUBKTNV-1">
          <mxGeometry x="892.5" y="390" width="150" height="80" as="geometry" />
        </mxCell>
        <mxCell id="CBO6Vm1dNy554DvEMSkb-103" value="Continuar siguiente proceso" style="rounded=1;whiteSpace=wrap;html=1;fontSize=12;glass=0;strokeWidth=1;shadow=0;" vertex="1" parent="WIyWlLk6GJQsqaUBKTNV-1">
          <mxGeometry x="1122.5" y="410" width="170" height="40" as="geometry" />
        </mxCell>
        <mxCell id="CBO6Vm1dNy554DvEMSkb-104" value="" style="edgeStyle=orthogonalEdgeStyle;rounded=0;html=1;jettySize=auto;orthogonalLoop=1;fontSize=11;endArrow=block;endFill=0;endSize=8;strokeWidth=1;shadow=0;labelBackgroundColor=none;entryX=0.5;entryY=0;entryDx=0;entryDy=0;exitX=0.5;exitY=1;exitDx=0;exitDy=0;" edge="1" parent="WIyWlLk6GJQsqaUBKTNV-1" source="CBO6Vm1dNy554DvEMSkb-103">
          <mxGeometry y="10" relative="1" as="geometry">
            <mxPoint as="offset" />
            <mxPoint x="1082.5" y="490" as="sourcePoint" />
            <mxPoint x="967.5" y="520" as="targetPoint" />
            <Array as="points">
              <mxPoint x="1182.5" y="450" />
              <mxPoint x="1182.5" y="490" />
              <mxPoint x="967.5" y="490" />
            </Array>
          </mxGeometry>
        </mxCell>
        <mxCell id="CBO6Vm1dNy554DvEMSkb-105" value="Yes" style="rounded=0;html=1;jettySize=auto;orthogonalLoop=1;fontSize=11;endArrow=block;endFill=0;endSize=8;strokeWidth=1;shadow=0;labelBackgroundColor=none;edgeStyle=orthogonalEdgeStyle;" edge="1" parent="WIyWlLk6GJQsqaUBKTNV-1" source="CBO6Vm1dNy554DvEMSkb-107">
          <mxGeometry y="20" relative="1" as="geometry">
            <mxPoint as="offset" />
            <mxPoint x="967.5" y="780" as="targetPoint" />
          </mxGeometry>
        </mxCell>
        <mxCell id="CBO6Vm1dNy554DvEMSkb-106" value="No" style="edgeStyle=orthogonalEdgeStyle;rounded=0;html=1;jettySize=auto;orthogonalLoop=1;fontSize=11;endArrow=block;endFill=0;endSize=8;strokeWidth=1;shadow=0;labelBackgroundColor=none;" edge="1" parent="WIyWlLk6GJQsqaUBKTNV-1" source="CBO6Vm1dNy554DvEMSkb-107" target="CBO6Vm1dNy554DvEMSkb-108">
          <mxGeometry y="10" relative="1" as="geometry">
            <mxPoint as="offset" />
          </mxGeometry>
        </mxCell>
        <mxCell id="CBO6Vm1dNy554DvEMSkb-107" value="&lt;strong&gt;Ensamblaje de Modelos&lt;/strong&gt;" style="rhombus;whiteSpace=wrap;html=1;shadow=0;fontFamily=Helvetica;fontSize=12;align=center;strokeWidth=1;spacing=6;spacingTop=-4;" vertex="1" parent="WIyWlLk6GJQsqaUBKTNV-1">
          <mxGeometry x="881.25" y="630" width="172.5" height="80" as="geometry" />
        </mxCell>
        <mxCell id="CBO6Vm1dNy554DvEMSkb-108" value="Continuar siguiente proceso" style="rounded=1;whiteSpace=wrap;html=1;fontSize=12;glass=0;strokeWidth=1;shadow=0;" vertex="1" parent="WIyWlLk6GJQsqaUBKTNV-1">
          <mxGeometry x="1122.5" y="650" width="170" height="40" as="geometry" />
        </mxCell>
        <mxCell id="CBO6Vm1dNy554DvEMSkb-109" value="" style="edgeStyle=orthogonalEdgeStyle;rounded=0;html=1;jettySize=auto;orthogonalLoop=1;fontSize=11;endArrow=block;endFill=0;endSize=8;strokeWidth=1;shadow=0;labelBackgroundColor=none;exitX=0.5;exitY=1;exitDx=0;exitDy=0;" edge="1" parent="WIyWlLk6GJQsqaUBKTNV-1" source="CBO6Vm1dNy554DvEMSkb-108">
          <mxGeometry y="10" relative="1" as="geometry">
            <mxPoint as="offset" />
            <mxPoint x="1082.5" y="730" as="sourcePoint" />
            <mxPoint x="967.5" y="780" as="targetPoint" />
            <Array as="points">
              <mxPoint x="1182.5" y="690" />
              <mxPoint x="1182.5" y="730" />
              <mxPoint x="967.5" y="730" />
            </Array>
          </mxGeometry>
        </mxCell>
        <mxCell id="CBO6Vm1dNy554DvEMSkb-110" value="Realizar inferencias en diferentes nodos." style="rounded=1;whiteSpace=wrap;html=1;" vertex="1" parent="WIyWlLk6GJQsqaUBKTNV-1">
          <mxGeometry x="850" y="520" width="230" height="60" as="geometry" />
        </mxCell>
        <mxCell id="CBO6Vm1dNy554DvEMSkb-111" value="" style="rounded=0;html=1;jettySize=auto;orthogonalLoop=1;fontSize=11;endArrow=block;endFill=0;endSize=8;strokeWidth=1;shadow=0;labelBackgroundColor=none;edgeStyle=orthogonalEdgeStyle;" edge="1" parent="WIyWlLk6GJQsqaUBKTNV-1">
          <mxGeometry y="20" relative="1" as="geometry">
            <mxPoint as="offset" />
            <mxPoint x="967.5" y="630" as="targetPoint" />
            <mxPoint x="967.5" y="580" as="sourcePoint" />
          </mxGeometry>
        </mxCell>
        <mxCell id="CBO6Vm1dNy554DvEMSkb-112" value="Ejecutar modelos concurrentemente.&lt;span style=&quot;white-space: pre;&quot;&gt;&#x9;&lt;/span&gt;" style="rounded=1;whiteSpace=wrap;html=1;" vertex="1" parent="WIyWlLk6GJQsqaUBKTNV-1">
          <mxGeometry x="850" y="780" width="235" height="60" as="geometry" />
        </mxCell>
        <mxCell id="CBO6Vm1dNy554DvEMSkb-113" value="" style="rounded=0;html=1;jettySize=auto;orthogonalLoop=1;fontSize=11;endArrow=block;endFill=0;endSize=8;strokeWidth=1;shadow=0;labelBackgroundColor=none;edgeStyle=orthogonalEdgeStyle;" edge="1" parent="WIyWlLk6GJQsqaUBKTNV-1">
          <mxGeometry y="20" relative="1" as="geometry">
            <mxPoint as="offset" />
            <mxPoint x="967" y="390" as="targetPoint" />
            <mxPoint x="967" y="320" as="sourcePoint" />
          </mxGeometry>
        </mxCell>
        <mxCell id="CBO6Vm1dNy554DvEMSkb-114" value="" style="edgeStyle=orthogonalEdgeStyle;rounded=0;html=1;jettySize=auto;orthogonalLoop=1;fontSize=11;endArrow=block;endFill=0;endSize=8;strokeWidth=1;shadow=0;labelBackgroundColor=none;entryX=0.5;entryY=0;entryDx=0;entryDy=0;exitX=0.5;exitY=1;exitDx=0;exitDy=0;" edge="1" parent="WIyWlLk6GJQsqaUBKTNV-1" source="CBO6Vm1dNy554DvEMSkb-49" target="CBO6Vm1dNy554DvEMSkb-89">
          <mxGeometry y="10" relative="1" as="geometry">
            <mxPoint as="offset" />
            <mxPoint x="198" y="1170" as="sourcePoint" />
            <mxPoint x="390" y="1155" as="targetPoint" />
            <Array as="points">
              <mxPoint x="198" y="1220" />
            </Array>
          </mxGeometry>
        </mxCell>
        <mxCell id="CBO6Vm1dNy554DvEMSkb-167" value="Yes" style="rounded=0;html=1;jettySize=auto;orthogonalLoop=1;fontSize=11;endArrow=block;endFill=0;endSize=8;strokeWidth=1;shadow=0;labelBackgroundColor=none;edgeStyle=orthogonalEdgeStyle;" edge="1" parent="WIyWlLk6GJQsqaUBKTNV-1">
          <mxGeometry y="20" relative="1" as="geometry">
            <mxPoint as="offset" />
            <mxPoint x="965" y="1080" as="targetPoint" />
            <mxPoint x="965" y="1010" as="sourcePoint" />
          </mxGeometry>
        </mxCell>
        <mxCell id="CBO6Vm1dNy554DvEMSkb-168" value="No" style="edgeStyle=orthogonalEdgeStyle;rounded=0;html=1;jettySize=auto;orthogonalLoop=1;fontSize=11;endArrow=block;endFill=0;endSize=8;strokeWidth=1;shadow=0;labelBackgroundColor=none;" edge="1" parent="WIyWlLk6GJQsqaUBKTNV-1" source="CBO6Vm1dNy554DvEMSkb-169" target="CBO6Vm1dNy554DvEMSkb-170">
          <mxGeometry y="10" relative="1" as="geometry">
            <mxPoint as="offset" />
          </mxGeometry>
        </mxCell>
        <mxCell id="CBO6Vm1dNy554DvEMSkb-169" value="&lt;b&gt;Modelos Heterogéneos&lt;/b&gt;" style="rhombus;whiteSpace=wrap;html=1;shadow=0;fontFamily=Helvetica;fontSize=12;align=center;strokeWidth=1;spacing=6;spacingTop=-4;" vertex="1" parent="WIyWlLk6GJQsqaUBKTNV-1">
          <mxGeometry x="855.25" y="930" width="219.5" height="90" as="geometry" />
        </mxCell>
        <mxCell id="CBO6Vm1dNy554DvEMSkb-170" value="Continuar siguiente proceso" style="rounded=1;whiteSpace=wrap;html=1;fontSize=12;glass=0;strokeWidth=1;shadow=0;" vertex="1" parent="WIyWlLk6GJQsqaUBKTNV-1">
          <mxGeometry x="1130.5" y="955" width="170" height="40" as="geometry" />
        </mxCell>
        <mxCell id="CBO6Vm1dNy554DvEMSkb-171" value="" style="edgeStyle=orthogonalEdgeStyle;rounded=0;html=1;jettySize=auto;orthogonalLoop=1;fontSize=11;endArrow=block;endFill=0;endSize=8;strokeWidth=1;shadow=0;labelBackgroundColor=none;exitX=0.5;exitY=1;exitDx=0;exitDy=0;" edge="1" parent="WIyWlLk6GJQsqaUBKTNV-1" source="CBO6Vm1dNy554DvEMSkb-170">
          <mxGeometry y="10" relative="1" as="geometry">
            <mxPoint as="offset" />
            <mxPoint x="1080" y="1030" as="sourcePoint" />
            <mxPoint x="965" y="1080" as="targetPoint" />
            <Array as="points">
              <mxPoint x="1215.5" y="1030" />
              <mxPoint x="965.5" y="1030" />
            </Array>
          </mxGeometry>
        </mxCell>
        <mxCell id="CBO6Vm1dNy554DvEMSkb-172" value="Procesar modelos en paralelo." style="rounded=1;whiteSpace=wrap;html=1;" vertex="1" parent="WIyWlLk6GJQsqaUBKTNV-1">
          <mxGeometry x="876.25" y="1080" width="182.5" height="60" as="geometry" />
        </mxCell>
        <mxCell id="CBO6Vm1dNy554DvEMSkb-173" value="Yes" style="rounded=0;html=1;jettySize=auto;orthogonalLoop=1;fontSize=11;endArrow=block;endFill=0;endSize=8;strokeWidth=1;shadow=0;labelBackgroundColor=none;edgeStyle=orthogonalEdgeStyle;" edge="1" parent="WIyWlLk6GJQsqaUBKTNV-1" source="CBO6Vm1dNy554DvEMSkb-175">
          <mxGeometry y="20" relative="1" as="geometry">
            <mxPoint as="offset" />
            <mxPoint x="967.5" y="1340" as="targetPoint" />
          </mxGeometry>
        </mxCell>
        <mxCell id="CBO6Vm1dNy554DvEMSkb-174" value="No" style="edgeStyle=orthogonalEdgeStyle;rounded=0;html=1;jettySize=auto;orthogonalLoop=1;fontSize=11;endArrow=block;endFill=0;endSize=8;strokeWidth=1;shadow=0;labelBackgroundColor=none;" edge="1" parent="WIyWlLk6GJQsqaUBKTNV-1" source="CBO6Vm1dNy554DvEMSkb-175" target="CBO6Vm1dNy554DvEMSkb-176">
          <mxGeometry y="10" relative="1" as="geometry">
            <mxPoint as="offset" />
          </mxGeometry>
        </mxCell>
        <mxCell id="CBO6Vm1dNy554DvEMSkb-175" value="&lt;strong&gt;Consistencia de Datos&lt;/strong&gt;:" style="rhombus;whiteSpace=wrap;html=1;shadow=0;fontFamily=Helvetica;fontSize=12;align=center;strokeWidth=1;spacing=6;spacingTop=-4;" vertex="1" parent="WIyWlLk6GJQsqaUBKTNV-1">
          <mxGeometry x="873.75" y="1210" width="182.5" height="80" as="geometry" />
        </mxCell>
        <mxCell id="CBO6Vm1dNy554DvEMSkb-176" value="Continuar siguiente proceso" style="rounded=1;whiteSpace=wrap;html=1;fontSize=12;glass=0;strokeWidth=1;shadow=0;" vertex="1" parent="WIyWlLk6GJQsqaUBKTNV-1">
          <mxGeometry x="1122.5" y="1230" width="170" height="40" as="geometry" />
        </mxCell>
        <mxCell id="CBO6Vm1dNy554DvEMSkb-177" value="" style="edgeStyle=orthogonalEdgeStyle;rounded=0;html=1;jettySize=auto;orthogonalLoop=1;fontSize=11;endArrow=block;endFill=0;endSize=8;strokeWidth=1;shadow=0;labelBackgroundColor=none;entryX=0.5;entryY=0;entryDx=0;entryDy=0;exitX=0.5;exitY=1;exitDx=0;exitDy=0;" edge="1" parent="WIyWlLk6GJQsqaUBKTNV-1" source="CBO6Vm1dNy554DvEMSkb-176">
          <mxGeometry y="10" relative="1" as="geometry">
            <mxPoint as="offset" />
            <mxPoint x="1082.5" y="1310" as="sourcePoint" />
            <mxPoint x="967.5" y="1340" as="targetPoint" />
            <Array as="points">
              <mxPoint x="1182.5" y="1270" />
              <mxPoint x="1182.5" y="1310" />
              <mxPoint x="967.5" y="1310" />
            </Array>
          </mxGeometry>
        </mxCell>
        <mxCell id="CBO6Vm1dNy554DvEMSkb-178" value="Yes" style="rounded=0;html=1;jettySize=auto;orthogonalLoop=1;fontSize=11;endArrow=block;endFill=0;endSize=8;strokeWidth=1;shadow=0;labelBackgroundColor=none;edgeStyle=orthogonalEdgeStyle;" edge="1" parent="WIyWlLk6GJQsqaUBKTNV-1" source="CBO6Vm1dNy554DvEMSkb-180">
          <mxGeometry y="20" relative="1" as="geometry">
            <mxPoint as="offset" />
            <mxPoint x="967.5" y="1600" as="targetPoint" />
          </mxGeometry>
        </mxCell>
        <mxCell id="CBO6Vm1dNy554DvEMSkb-179" value="No" style="edgeStyle=orthogonalEdgeStyle;rounded=0;html=1;jettySize=auto;orthogonalLoop=1;fontSize=11;endArrow=block;endFill=0;endSize=8;strokeWidth=1;shadow=0;labelBackgroundColor=none;" edge="1" parent="WIyWlLk6GJQsqaUBKTNV-1" source="CBO6Vm1dNy554DvEMSkb-180" target="CBO6Vm1dNy554DvEMSkb-181">
          <mxGeometry y="10" relative="1" as="geometry">
            <mxPoint as="offset" />
          </mxGeometry>
        </mxCell>
        <mxCell id="CBO6Vm1dNy554DvEMSkb-180" value="&lt;b&gt;Contención de Recursos&lt;/b&gt;" style="rhombus;whiteSpace=wrap;html=1;shadow=0;fontFamily=Helvetica;fontSize=12;align=center;strokeWidth=1;spacing=6;spacingTop=-4;" vertex="1" parent="WIyWlLk6GJQsqaUBKTNV-1">
          <mxGeometry x="881.25" y="1450" width="172.5" height="80" as="geometry" />
        </mxCell>
        <mxCell id="CBO6Vm1dNy554DvEMSkb-181" value="Continuar siguiente proceso" style="rounded=1;whiteSpace=wrap;html=1;fontSize=12;glass=0;strokeWidth=1;shadow=0;" vertex="1" parent="WIyWlLk6GJQsqaUBKTNV-1">
          <mxGeometry x="1122.5" y="1470" width="170" height="40" as="geometry" />
        </mxCell>
        <mxCell id="CBO6Vm1dNy554DvEMSkb-182" value="" style="edgeStyle=orthogonalEdgeStyle;rounded=0;html=1;jettySize=auto;orthogonalLoop=1;fontSize=11;endArrow=block;endFill=0;endSize=8;strokeWidth=1;shadow=0;labelBackgroundColor=none;exitX=0.5;exitY=1;exitDx=0;exitDy=0;" edge="1" parent="WIyWlLk6GJQsqaUBKTNV-1" source="CBO6Vm1dNy554DvEMSkb-181">
          <mxGeometry y="10" relative="1" as="geometry">
            <mxPoint as="offset" />
            <mxPoint x="1082.5" y="1550" as="sourcePoint" />
            <mxPoint x="967.5" y="1600" as="targetPoint" />
            <Array as="points">
              <mxPoint x="1182.5" y="1510" />
              <mxPoint x="1182.5" y="1550" />
              <mxPoint x="967.5" y="1550" />
            </Array>
          </mxGeometry>
        </mxCell>
        <mxCell id="CBO6Vm1dNy554DvEMSkb-183" value=" Implementar mecanismos de sincronización" style="rounded=1;whiteSpace=wrap;html=1;" vertex="1" parent="WIyWlLk6GJQsqaUBKTNV-1">
          <mxGeometry x="883.75" y="1340" width="170" height="60" as="geometry" />
        </mxCell>
        <mxCell id="CBO6Vm1dNy554DvEMSkb-184" value="" style="rounded=0;html=1;jettySize=auto;orthogonalLoop=1;fontSize=11;endArrow=block;endFill=0;endSize=8;strokeWidth=1;shadow=0;labelBackgroundColor=none;edgeStyle=orthogonalEdgeStyle;" edge="1" parent="WIyWlLk6GJQsqaUBKTNV-1">
          <mxGeometry y="20" relative="1" as="geometry">
            <mxPoint as="offset" />
            <mxPoint x="967.5" y="1450" as="targetPoint" />
            <mxPoint x="967.5" y="1400" as="sourcePoint" />
          </mxGeometry>
        </mxCell>
        <mxCell id="CBO6Vm1dNy554DvEMSkb-185" value="Optimizar uso de memoria y procesadores." style="rounded=1;whiteSpace=wrap;html=1;" vertex="1" parent="WIyWlLk6GJQsqaUBKTNV-1">
          <mxGeometry x="850" y="1600" width="235" height="60" as="geometry" />
        </mxCell>
        <mxCell id="CBO6Vm1dNy554DvEMSkb-186" value="" style="rounded=0;html=1;jettySize=auto;orthogonalLoop=1;fontSize=11;endArrow=block;endFill=0;endSize=8;strokeWidth=1;shadow=0;labelBackgroundColor=none;edgeStyle=orthogonalEdgeStyle;" edge="1" parent="WIyWlLk6GJQsqaUBKTNV-1">
          <mxGeometry y="20" relative="1" as="geometry">
            <mxPoint as="offset" />
            <mxPoint x="967" y="1210" as="targetPoint" />
            <mxPoint x="967" y="1140" as="sourcePoint" />
          </mxGeometry>
        </mxCell>
        <mxCell id="CBO6Vm1dNy554DvEMSkb-188" value="" style="rounded=0;html=1;jettySize=auto;orthogonalLoop=1;fontSize=11;endArrow=block;endFill=0;endSize=8;strokeWidth=1;shadow=0;labelBackgroundColor=none;edgeStyle=orthogonalEdgeStyle;entryX=0.5;entryY=0;entryDx=0;entryDy=0;" edge="1" parent="WIyWlLk6GJQsqaUBKTNV-1" target="CBO6Vm1dNy554DvEMSkb-169">
          <mxGeometry y="20" relative="1" as="geometry">
            <mxPoint as="offset" />
            <mxPoint x="965.48" y="890" as="targetPoint" />
            <mxPoint x="965.48" y="840" as="sourcePoint" />
          </mxGeometry>
        </mxCell>
        <mxCell id="CBO6Vm1dNy554DvEMSkb-189" value="" style="rounded=0;html=1;jettySize=auto;orthogonalLoop=1;fontSize=11;endArrow=block;endFill=0;endSize=8;strokeWidth=1;shadow=0;labelBackgroundColor=none;edgeStyle=orthogonalEdgeStyle;entryX=0;entryY=0.5;entryDx=0;entryDy=0;exitX=1;exitY=0.5;exitDx=0;exitDy=0;" edge="1" parent="WIyWlLk6GJQsqaUBKTNV-1" target="CBO6Vm1dNy554DvEMSkb-192">
          <mxGeometry y="20" relative="1" as="geometry">
            <mxPoint as="offset" />
            <mxPoint x="1625" y="350" as="targetPoint" />
            <mxPoint x="1085" y="1635" as="sourcePoint" />
          </mxGeometry>
        </mxCell>
        <mxCell id="CBO6Vm1dNy554DvEMSkb-190" value="Yes" style="rounded=0;html=1;jettySize=auto;orthogonalLoop=1;fontSize=11;endArrow=block;endFill=0;endSize=8;strokeWidth=1;shadow=0;labelBackgroundColor=none;edgeStyle=orthogonalEdgeStyle;" edge="1" parent="WIyWlLk6GJQsqaUBKTNV-1">
          <mxGeometry y="20" relative="1" as="geometry">
            <mxPoint as="offset" />
            <mxPoint x="1915" y="260" as="targetPoint" />
            <mxPoint x="1915" y="190" as="sourcePoint" />
          </mxGeometry>
        </mxCell>
        <mxCell id="CBO6Vm1dNy554DvEMSkb-191" value="No" style="edgeStyle=orthogonalEdgeStyle;rounded=0;html=1;jettySize=auto;orthogonalLoop=1;fontSize=11;endArrow=block;endFill=0;endSize=8;strokeWidth=1;shadow=0;labelBackgroundColor=none;" edge="1" parent="WIyWlLk6GJQsqaUBKTNV-1" source="CBO6Vm1dNy554DvEMSkb-192" target="CBO6Vm1dNy554DvEMSkb-193">
          <mxGeometry y="10" relative="1" as="geometry">
            <mxPoint as="offset" />
          </mxGeometry>
        </mxCell>
        <mxCell id="CBO6Vm1dNy554DvEMSkb-192" value="&lt;strong&gt;Complejidad en la Depuración&lt;/strong&gt;" style="rhombus;whiteSpace=wrap;html=1;shadow=0;fontFamily=Helvetica;fontSize=12;align=center;strokeWidth=1;spacing=6;spacingTop=-4;" vertex="1" parent="WIyWlLk6GJQsqaUBKTNV-1">
          <mxGeometry x="1805.25" y="110" width="219.5" height="90" as="geometry" />
        </mxCell>
        <mxCell id="CBO6Vm1dNy554DvEMSkb-193" value="Continuar siguiente proceso" style="rounded=1;whiteSpace=wrap;html=1;fontSize=12;glass=0;strokeWidth=1;shadow=0;" vertex="1" parent="WIyWlLk6GJQsqaUBKTNV-1">
          <mxGeometry x="2080.5" y="135" width="170" height="40" as="geometry" />
        </mxCell>
        <mxCell id="CBO6Vm1dNy554DvEMSkb-194" value="" style="edgeStyle=orthogonalEdgeStyle;rounded=0;html=1;jettySize=auto;orthogonalLoop=1;fontSize=11;endArrow=block;endFill=0;endSize=8;strokeWidth=1;shadow=0;labelBackgroundColor=none;exitX=0.5;exitY=1;exitDx=0;exitDy=0;" edge="1" parent="WIyWlLk6GJQsqaUBKTNV-1" source="CBO6Vm1dNy554DvEMSkb-193">
          <mxGeometry y="10" relative="1" as="geometry">
            <mxPoint as="offset" />
            <mxPoint x="2030" y="210" as="sourcePoint" />
            <mxPoint x="1915" y="260" as="targetPoint" />
            <Array as="points">
              <mxPoint x="2165.5" y="210" />
              <mxPoint x="1915.5" y="210" />
            </Array>
          </mxGeometry>
        </mxCell>
        <mxCell id="CBO6Vm1dNy554DvEMSkb-195" value="Implementar estrategias de depuración" style="rounded=1;whiteSpace=wrap;html=1;" vertex="1" parent="WIyWlLk6GJQsqaUBKTNV-1">
          <mxGeometry x="1800" y="260" width="232.5" height="60" as="geometry" />
        </mxCell>
        <mxCell id="CBO6Vm1dNy554DvEMSkb-196" value="Yes" style="rounded=0;html=1;jettySize=auto;orthogonalLoop=1;fontSize=11;endArrow=block;endFill=0;endSize=8;strokeWidth=1;shadow=0;labelBackgroundColor=none;edgeStyle=orthogonalEdgeStyle;entryX=0.5;entryY=0;entryDx=0;entryDy=0;" edge="1" parent="WIyWlLk6GJQsqaUBKTNV-1" source="CBO6Vm1dNy554DvEMSkb-198" target="CBO6Vm1dNy554DvEMSkb-206">
          <mxGeometry x="-0.2508" y="22" relative="1" as="geometry">
            <mxPoint as="offset" />
            <mxPoint x="1917.5" y="520" as="targetPoint" />
          </mxGeometry>
        </mxCell>
        <mxCell id="CBO6Vm1dNy554DvEMSkb-197" value="No" style="edgeStyle=orthogonalEdgeStyle;rounded=0;html=1;jettySize=auto;orthogonalLoop=1;fontSize=11;endArrow=block;endFill=0;endSize=8;strokeWidth=1;shadow=0;labelBackgroundColor=none;" edge="1" parent="WIyWlLk6GJQsqaUBKTNV-1" source="CBO6Vm1dNy554DvEMSkb-198" target="CBO6Vm1dNy554DvEMSkb-199">
          <mxGeometry y="10" relative="1" as="geometry">
            <mxPoint as="offset" />
          </mxGeometry>
        </mxCell>
        <mxCell id="CBO6Vm1dNy554DvEMSkb-198" value="&lt;b&gt;¿Se está entrenando en un entorno distribuido?&lt;/b&gt;" style="rhombus;whiteSpace=wrap;html=1;shadow=0;fontFamily=Helvetica;fontSize=12;align=center;strokeWidth=1;spacing=6;spacingTop=-4;" vertex="1" parent="WIyWlLk6GJQsqaUBKTNV-1">
          <mxGeometry x="1796.25" y="390" width="242.5" height="110" as="geometry" />
        </mxCell>
        <mxCell id="CBO6Vm1dNy554DvEMSkb-199" value="Continuar siguiente proceso" style="rounded=1;whiteSpace=wrap;html=1;fontSize=12;glass=0;strokeWidth=1;shadow=0;" vertex="1" parent="WIyWlLk6GJQsqaUBKTNV-1">
          <mxGeometry x="2110" y="425" width="170" height="40" as="geometry" />
        </mxCell>
        <mxCell id="CBO6Vm1dNy554DvEMSkb-200" value="" style="edgeStyle=orthogonalEdgeStyle;rounded=0;html=1;jettySize=auto;orthogonalLoop=1;fontSize=11;endArrow=block;endFill=0;endSize=8;strokeWidth=1;shadow=0;labelBackgroundColor=none;exitX=0.5;exitY=1;exitDx=0;exitDy=0;entryX=0.5;entryY=0;entryDx=0;entryDy=0;" edge="1" parent="WIyWlLk6GJQsqaUBKTNV-1" source="CBO6Vm1dNy554DvEMSkb-199" target="CBO6Vm1dNy554DvEMSkb-206">
          <mxGeometry y="10" relative="1" as="geometry">
            <mxPoint as="offset" />
            <mxPoint x="2032.5" y="490" as="sourcePoint" />
            <mxPoint x="1917" y="570" as="targetPoint" />
            <Array as="points">
              <mxPoint x="2166" y="540" />
              <mxPoint x="1917" y="540" />
            </Array>
          </mxGeometry>
        </mxCell>
        <mxCell id="CBO6Vm1dNy554DvEMSkb-206" value="Dividir datos y entrenar en múltiples GPUs." style="rounded=1;whiteSpace=wrap;html=1;" vertex="1" parent="WIyWlLk6GJQsqaUBKTNV-1">
          <mxGeometry x="1802.5" y="580" width="230" height="60" as="geometry" />
        </mxCell>
        <mxCell id="CBO6Vm1dNy554DvEMSkb-207" value="" style="rounded=0;html=1;jettySize=auto;orthogonalLoop=1;fontSize=11;endArrow=block;endFill=0;endSize=8;strokeWidth=1;shadow=0;labelBackgroundColor=none;edgeStyle=orthogonalEdgeStyle;" edge="1" parent="WIyWlLk6GJQsqaUBKTNV-1">
          <mxGeometry y="20" relative="1" as="geometry">
            <mxPoint as="offset" />
            <mxPoint x="1920" y="690" as="targetPoint" />
            <mxPoint x="1920" y="640" as="sourcePoint" />
          </mxGeometry>
        </mxCell>
        <mxCell id="CBO6Vm1dNy554DvEMSkb-209" value="" style="rounded=0;html=1;jettySize=auto;orthogonalLoop=1;fontSize=11;endArrow=block;endFill=0;endSize=8;strokeWidth=1;shadow=0;labelBackgroundColor=none;edgeStyle=orthogonalEdgeStyle;" edge="1" parent="WIyWlLk6GJQsqaUBKTNV-1">
          <mxGeometry y="20" relative="1" as="geometry">
            <mxPoint as="offset" />
            <mxPoint x="1917" y="390" as="targetPoint" />
            <mxPoint x="1917" y="320" as="sourcePoint" />
          </mxGeometry>
        </mxCell>
        <mxCell id="CBO6Vm1dNy554DvEMSkb-232" value="Yes" style="rounded=0;html=1;jettySize=auto;orthogonalLoop=1;fontSize=11;endArrow=block;endFill=0;endSize=8;strokeWidth=1;shadow=0;labelBackgroundColor=none;edgeStyle=orthogonalEdgeStyle;entryX=0.5;entryY=0;entryDx=0;entryDy=0;" edge="1" parent="WIyWlLk6GJQsqaUBKTNV-1" source="CBO6Vm1dNy554DvEMSkb-234" target="CBO6Vm1dNy554DvEMSkb-237">
          <mxGeometry x="-0.2508" y="22" relative="1" as="geometry">
            <mxPoint as="offset" />
            <mxPoint x="1921.25" y="820" as="targetPoint" />
          </mxGeometry>
        </mxCell>
        <mxCell id="CBO6Vm1dNy554DvEMSkb-233" value="No" style="edgeStyle=orthogonalEdgeStyle;rounded=0;html=1;jettySize=auto;orthogonalLoop=1;fontSize=11;endArrow=block;endFill=0;endSize=8;strokeWidth=1;shadow=0;labelBackgroundColor=none;" edge="1" parent="WIyWlLk6GJQsqaUBKTNV-1" source="CBO6Vm1dNy554DvEMSkb-234" target="CBO6Vm1dNy554DvEMSkb-235">
          <mxGeometry y="10" relative="1" as="geometry">
            <mxPoint as="offset" />
          </mxGeometry>
        </mxCell>
        <mxCell id="CBO6Vm1dNy554DvEMSkb-234" value="&lt;b&gt;¿Se han completado todas las tareas concurrentes?&lt;/b&gt;" style="rhombus;whiteSpace=wrap;html=1;shadow=0;fontFamily=Helvetica;fontSize=12;align=center;strokeWidth=1;spacing=6;spacingTop=-4;" vertex="1" parent="WIyWlLk6GJQsqaUBKTNV-1">
          <mxGeometry x="1800" y="690" width="242.5" height="110" as="geometry" />
        </mxCell>
        <mxCell id="CBO6Vm1dNy554DvEMSkb-235" value="Revisar y optimizar." style="rounded=1;whiteSpace=wrap;html=1;fontSize=12;glass=0;strokeWidth=1;shadow=0;" vertex="1" parent="WIyWlLk6GJQsqaUBKTNV-1">
          <mxGeometry x="2113.75" y="725" width="170" height="40" as="geometry" />
        </mxCell>
        <mxCell id="CBO6Vm1dNy554DvEMSkb-237" value="Fin del proceso" style="rounded=1;whiteSpace=wrap;html=1;" vertex="1" parent="WIyWlLk6GJQsqaUBKTNV-1">
          <mxGeometry x="1806.25" y="880" width="230" height="60" as="geometry" />
        </mxCell>
        <mxCell id="CBO6Vm1dNy554DvEMSkb-239" value="" style="rounded=0;html=1;jettySize=auto;orthogonalLoop=1;fontSize=11;endArrow=block;endFill=0;endSize=8;strokeWidth=1;shadow=0;labelBackgroundColor=none;edgeStyle=orthogonalEdgeStyle;entryX=1;entryY=0.25;entryDx=0;entryDy=0;exitX=1;exitY=0.5;exitDx=0;exitDy=0;" edge="1" parent="WIyWlLk6GJQsqaUBKTNV-1" source="CBO6Vm1dNy554DvEMSkb-235" target="WIyWlLk6GJQsqaUBKTNV-3">
          <mxGeometry y="20" relative="1" as="geometry">
            <mxPoint as="offset" />
            <mxPoint x="3010" y="-730.67" as="targetPoint" />
            <mxPoint x="2290" y="749.33" as="sourcePoint" />
            <Array as="points">
              <mxPoint x="2320" y="745" />
              <mxPoint x="2320" y="90" />
            </Array>
          </mxGeometry>
        </mxCell>
      </root>
    </mxGraphModel>
  </diagram>
</mxfile>
